<?xml version="1.0" encoding="utf-8"?>
<!-- Generator: Adobe Illustrator 17.0.0, SVG Export Plug-In . SVG Version: 6.00 Build 0)  -->
<!DOCTYPE svg PUBLIC "-//W3C//DTD SVG 1.1//EN" "http://www.w3.org/Graphics/SVG/1.1/DTD/svg11.dtd">
<svg version="1.1" xmlns="http://www.w3.org/2000/svg" xmlns:xlink="http://www.w3.org/1999/xlink" x="0px" y="0px"
	 width="113.75px" height="111px" viewBox="0 0 113.75 111" enable-background="new 0 0 113.75 111" xml:space="preserve">
<g id="Layer_2" display="none">
	
		<image display="inline" overflow="visible" width="565" height="501" xlink:href="CFB91561.jpg"  transform="matrix(0.3416 0 0 0.3416 -44.125 -33.569)">
	</image>
</g>
<g id="Layer_1" display="none">
	
		<rect x="13.375" y="24.25" transform="matrix(0.7071 0.7071 -0.7071 0.7071 58.6898 -17.9396)" display="inline" fill="#FFFFFF" stroke="#000000" stroke-miterlimit="10" width="75.25" height="75.25"/>
	
		<rect x="13.375" y="-16.75" transform="matrix(0.7071 0.7071 -0.7071 0.7071 29.6984 -29.9482)" display="inline" fill="#FFFFFF" stroke="#000000" stroke-miterlimit="10" width="75.25" height="75.25"/>
</g>
<g id="Layer_4" display="none">
	<g display="inline">
		
			<rect x="32.875" y="3.625" transform="matrix(0.7071 -0.7071 0.7071 0.7071 -0.442 42.4328)" fill="#FF9B76" stroke="#000000" stroke-miterlimit="10" width="36.25" height="36.25"/>
		
			<rect x="29.121" y="12.687" transform="matrix(0.7071 -0.7071 0.7071 0.7071 -4.1958 33.3703)" fill="#D1FFA7" stroke="#000000" stroke-miterlimit="10" width="18.125" height="18.125"/>
		
			<rect x="41.937" y="25.504" transform="matrix(-0.7071 0.7071 -0.7071 -0.7071 111.5044 22.946)" fill="#FFD49B" stroke="#000000" stroke-miterlimit="10" width="18.125" height="18.125"/>
	</g>
</g>
<g id="Layer_3" display="none">
	<polygon display="inline" fill="#707070" stroke="#000000" stroke-miterlimit="10" points="-2.21,20.875 51,74.085 104.21,20.875 
		104.21,61.875 51,115.085 -2.21,61.875 	"/>
</g>
<g id="Layer_6" display="none">
	<path display="inline" fill="#707070" stroke="#000000" stroke-miterlimit="10" d="M93.229,50.845c0,0-15.128-12.643-18.528-16.229
		c-3.645-3.843-8.799-6.239-14.514-6.239H31.521c-11.046,0-20,8.954-20,20v28.667c0,6.124,2.753,11.606,7.088,15.274
		c3.484,2.948,18.468,15.972,18.468,15.972l23.11-11.247c11.046,0,20-8.954,20-20L93.229,50.845z"/>
	<path display="inline" fill="#FFFFFF" stroke="#000000" stroke-miterlimit="10" d="M98.021,63.834
		c0-4.958-1.804-9.494-4.791-12.989c-3.668-4.291-9.121-7.011-15.209-7.011H49.354c-11.046,0-20,8.954-20,20V92.5
		c0,6.418,3.023,12.13,7.723,15.79c3.389,2.639,7.649,4.21,12.277,4.21h28.667c11.046,0,20-8.954,20-20V63.834z"/>
	<path display="inline" fill="#FFAE37" stroke="#000000" stroke-miterlimit="10" d="M75.945,73.05c0-3.943-3.197-7.14-7.14-7.14
		h-5.367H58.57c-3.943,0-7.14,3.197-7.14,7.14v10.234c0,3.943,3.197,7.14,7.14,7.14h10.234c3.943,0,7.14-3.197,7.14-7.14v-4.865
		V73.05z"/>
	<path display="inline" fill="#B9FFA7" stroke="#000000" stroke-miterlimit="10" d="M63.687,78.419h12.258V73.05
		c0-3.943-3.197-7.14-7.14-7.14h-5.117V78.419z"/>
</g>
<g id="Layer_7" display="none">
	<path display="inline" fill="#707070" stroke="#000000" stroke-miterlimit="10" d="M34.721,38.099c0,0-0.354,18.983-0.354,23.15
		c0,4.167,1.81,10.634,5.851,14.674l20.27,20.27c7.81,7.81,20.474,7.81,28.284,0l20.27-20.27c4.33-4.33,5.788-10.368,5.788-15.813
		s0.215-22.927,0.215-22.927l-24.294-8.389c-7.81-7.81-20.474-7.81-28.284,0L34.721,38.099z"/>
	<path display="inline" fill="#FFFFFF" stroke="#000000" stroke-miterlimit="10" d="M40.518,25.526
		c-3.506,3.506-5.438,7.989-5.797,12.573c-0.44,5.628,1.492,11.407,5.797,15.712l20.27,20.27c7.81,7.81,20.474,7.81,28.284,0
		l20.27-20.27c4.538-4.538,6.44-10.715,5.704-16.626c-0.53-4.262-2.432-8.386-5.704-11.658l-20.27-20.27
		c-7.81-7.81-20.474-7.81-28.284,0L40.518,25.526z"/>
	<path display="inline" fill="#FFAE37" stroke="#000000" stroke-miterlimit="10" d="M56.029,31.901c-4.29,4.29-4.29,11.245,0,15.535
		l5.839,5.839l5.295,5.295c4.29,4.29,11.245,4.29,15.535,0l11.134-11.134c4.29-4.29,4.29-11.245,0-15.535L82.698,20.768
		c-4.29-4.29-11.245-4.29-15.535,0L61.87,26.06L56.029,31.901z"/>
	<path display="inline" fill="#B9FFA7" stroke="#000000" stroke-miterlimit="10" d="M75.204,39.395L61.87,26.06l-5.841,5.841
		c-4.29,4.29-4.29,11.245,0,15.535l5.567,5.567L75.204,39.395z"/>
</g>
<g id="Layer_8">
	<path fill="#707070" stroke="#000000" stroke-width="4" stroke-miterlimit="10" d="M16.882,42.999c0,0,0,18.983,0,23.15
		s1.24,10.509,5.281,14.549l20.27,20.27c7.81,7.81,20.474,7.81,28.284,0l20.27-20.27c4.33-4.33,5.582-10.201,5.582-15.646
		c0-5.444,0-22.927,0-22.927l-23.872-8.555c-7.81-7.81-20.474-7.81-28.284,0L16.882,42.999z"/>
	<path fill="#FFFFFF" stroke="#000000" stroke-width="4" stroke-miterlimit="10" d="M22.462,30.301
		c-3.506,3.506-5.438,7.989-5.797,12.573c-0.44,5.628,1.492,11.407,5.797,15.712l20.27,20.27c7.81,7.81,20.474,7.81,28.284,0
		l20.27-20.27c4.538-4.538,6.44-10.715,5.704-16.626c-0.53-4.262-2.432-8.386-5.704-11.658l-20.27-20.27
		c-7.81-7.81-20.474-7.81-28.284,0L22.462,30.301z"/>
	<path fill="#FFAE37" stroke="#000000" stroke-width="4" stroke-miterlimit="10" d="M37.974,36.676c-4.29,4.29-4.29,11.245,0,15.535
		l5.839,5.839l5.295,5.295c4.29,4.29,11.245,4.29,15.535,0l11.134-11.134c4.29-4.29,4.29-11.245,0-15.535L64.643,25.543
		c-4.29-4.29-11.245-4.29-15.535,0l-5.293,5.293L37.974,36.676z"/>
	<path fill="#B9FFA7" stroke="#000000" stroke-width="4" stroke-miterlimit="10" d="M57.149,44.17L43.815,30.835l-5.841,5.841
		c-4.29,4.29-4.29,11.245,0,15.535l5.567,5.567L57.149,44.17z"/>
</g>
<g id="Layer_5" display="none">
	
		<rect x="42.375" y="21.25" transform="matrix(0.7071 0.7071 -0.7071 0.7071 65.0624 -39.3244)" display="inline" fill="#FFFFFF" stroke="#000000" stroke-miterlimit="10" width="75.25" height="75.25"/>
	
		<rect x="42.375" y="-19.75" transform="matrix(0.7071 0.7071 -0.7071 0.7071 36.071 -51.333)" display="inline" fill="#FFFFFF" stroke="#000000" stroke-miterlimit="10" width="75.25" height="75.25"/>
	<g display="inline">
		
			<rect x="61.875" y="0.625" transform="matrix(0.7071 -0.7071 0.7071 0.7071 10.1732 62.0602)" fill="#FF9B76" stroke="#000000" stroke-miterlimit="10" width="36.25" height="36.25"/>
		
			<rect x="58.121" y="9.688" transform="matrix(0.7071 -0.7071 0.7071 0.7071 6.4194 52.9977)" fill="#D1FFA7" stroke="#000000" stroke-miterlimit="10" width="18.125" height="18.125"/>
		
			<rect x="70.937" y="22.504" transform="matrix(-0.7071 0.7071 -0.7071 -0.7071 158.8892 -2.6814)" fill="#FFD49B" stroke="#000000" stroke-miterlimit="10" width="18.125" height="18.125"/>
	</g>
	<polygon display="inline" fill="#707070" stroke="#000000" stroke-miterlimit="10" points="26.79,17.875 80,71.085 133.21,17.875 
		133.21,58.875 80,112.085 26.79,58.875 	"/>
</g>
</svg>
